<?xml version="1.0" encoding="utf-8"?>
<!-- Generator: Adobe Illustrator 16.0.0, SVG Export Plug-In . SVG Version: 6.00 Build 0)  -->
<!DOCTYPE svg PUBLIC "-//W3C//DTD SVG 1.1//EN" "http://www.w3.org/Graphics/SVG/1.1/DTD/svg11.dtd">
<svg version="1.1" xmlns="http://www.w3.org/2000/svg" xmlns:xlink="http://www.w3.org/1999/xlink" x="0px" y="0px"
	 width="45.249px" height="32px" viewBox="100.789 103.804 45.249 32" enable-background="new 100.789 103.804 45.249 32"
	 xml:space="preserve">
<g id="Capa_2">
</g>
<g id="Capa_1">
	<path fill="#472F92" d="M140.907,125.758l-3.579-11.357c-0.037-0.675-0.477-1.624-2.264-2.494v0
		c-0.295-0.143-0.65-0.021-0.793,0.274c-0.144,0.295-0.021,0.65,0.274,0.793c1.017,0.495,1.601,1.05,1.601,1.524
		c0,1.413-4.843,3.382-12.73,3.382c-7.887,0-12.731-1.969-12.731-3.382c0-0.55,0.841-1.405,3.201-2.155
		c0.312-0.099,0.485-0.432,0.385-0.745c-0.099-0.311-0.432-0.484-0.744-0.385c-2.553,0.811-3.936,1.902-4.02,3.162l-3.587,11.381v0
		c-0.109,0.345-0.123,0.713-0.039,1.064c0.083,0.353,0.261,0.674,0.513,0.933l0,0.001c5.098,6.002,29.015,5.96,34.039,0h0
		c0.252-0.259,0.43-0.582,0.513-0.933C141.029,126.471,141.016,126.103,140.907,125.758z"/>
	<path fill="#FFFFFF" d="M116.748,125.159c0.327,0,0.593-0.266,0.593-0.594c0-0.327-0.266-0.592-0.593-0.592
		c-0.36-0.001-0.706-0.144-0.961-0.399c-0.255-0.255-0.398-0.601-0.399-0.961c0.129-2.107,3.218-1.578,2.645,0.447v0
		c-0.063,0.181-0.034,0.381,0.077,0.538c0.11,0.157,0.29,0.25,0.481,0.252h9.645c0.32-0.003,0.581-0.258,0.592-0.578
		c-0.048-0.218-0.084-0.438-0.108-0.661c0-0.361,0.143-0.707,0.399-0.962c0.254-0.255,0.601-0.398,0.962-0.398
		c0.36,0,0.707,0.144,0.962,0.398c0.255,0.255,0.398,0.602,0.398,0.962c0,0.361-0.144,0.707-0.398,0.962
		c-0.255,0.255-0.602,0.398-0.962,0.398c-0.328,0-0.593,0.266-0.593,0.593s0.266,0.593,0.593,0.593c3.366-0.118,3.371-4.972,0-5.091
		c-0.685,0-1.339,0.276-1.817,0.765c-0.478,0.489-0.74,1.15-0.724,1.833h-8.249c0.015-0.683-0.246-1.344-0.725-1.833
		c-0.478-0.489-1.133-0.765-1.817-0.765C113.378,120.187,113.379,125.039,116.748,125.159L116.748,125.159z"/>
	<path fill="#FFFFFF" d="M116.748,129.064c0.684,0,1.339-0.276,1.817-0.765c0.478-0.489,0.739-1.15,0.724-1.833h8.249
		c-0.017,0.751,0.299,1.471,0.864,1.967c0.564,0.496,1.319,0.717,2.061,0.604c0.744-0.113,1.398-0.549,1.79-1.19
		c0.392-0.641,0.48-1.423,0.241-2.135c-0.11-0.301-0.44-0.46-0.744-0.359c-0.305,0.102-0.473,0.427-0.38,0.733
		c0.127,0.379,0.081,0.793-0.125,1.135c-0.206,0.342-0.552,0.575-0.946,0.64c-0.393,0.064-0.795-0.047-1.1-0.305
		c-0.304-0.259-0.479-0.638-0.479-1.036c0.021-0.218,0.057-0.434,0.11-0.646c-0.004-0.25-0.161-0.471-0.395-0.558
		c-0.065-0.02-0.131-0.031-0.198-0.035c-0.042,0.008-9.549-0.011-9.584,0.005c-0.203-0.021-0.401,0.063-0.527,0.224
		c-0.126,0.159-0.161,0.372-0.093,0.564c0.05,0.143,0.077,0.293,0.076,0.446c0,0.398-0.174,0.775-0.477,1.034
		c-0.302,0.258-0.702,0.372-1.095,0.309c-0.393-0.062-0.739-0.292-0.947-0.631c-0.208-0.339-0.257-0.752-0.135-1.131
		c0.101-0.312-0.069-0.646-0.381-0.747c-0.697-0.203-0.886,0.64-0.869,1.166l0,0c0,0.675,0.269,1.322,0.746,1.799
		S116.073,129.063,116.748,129.064L116.748,129.064z"/>
	<path fill="#472F92" d="M129.702,114.745c0,0.327,0.265,0.592,0.592,0.592s0.593-0.265,0.593-0.592
		c0-0.366,0.195-0.704,0.511-0.887s0.707-0.183,1.023,0c0.317,0.183,0.512,0.521,0.512,0.887c0,0.327,0.266,0.592,0.593,0.592
		c1.15-0.147,0.399-1.818-0.152-2.241l0,0c0.043-0.581-0.125-1.157-0.474-1.623c-0.349-0.466-0.854-0.79-1.423-0.912
		c-0.142-0.521-0.45-0.982-0.877-1.313c-0.428-0.33-0.951-0.513-1.491-0.519c-0.483-0.695-1.225-1.169-2.06-1.315
		c-0.834-0.146-1.692,0.047-2.384,0.537c-0.741-0.523-1.671-0.704-2.555-0.499c-0.884,0.206-1.639,0.778-2.075,1.574
		c-0.647-0.408-1.419-0.571-2.176-0.459c-0.757,0.111-1.45,0.489-1.952,1.066s-0.782,1.315-0.789,2.08
		c0,0.328,0.266,0.593,0.593,0.593c0.328,0,0.593-0.265,0.593-0.593c0-0.556,0.231-1.087,0.637-1.467
		c0.407-0.38,0.952-0.574,1.507-0.536c0.555,0.037,1.069,0.304,1.421,0.734c0.168,0.197,0.443,0.264,0.683,0.165
		c0.239-0.1,0.387-0.341,0.366-0.6c0.191-0.683,0.731-1.212,1.417-1.39s1.417,0.023,1.915,0.528
		c0.116,0.103,0.263,0.165,0.418,0.172c0.151-0.01,0.296-0.068,0.412-0.166c0.441-0.461,1.078-0.68,1.71-0.588
		c0.632,0.092,1.18,0.484,1.471,1.052c0.164,0.325,0.497,0.345,0.818,0.297v0c0.347,0.003,0.678,0.142,0.923,0.387
		c0.245,0.244,0.384,0.575,0.388,0.921c0.058,0.276,0.301,0.473,0.583,0.472c0.259,0.001,0.512,0.084,0.721,0.237
		c0.209,0.154,0.364,0.37,0.442,0.617c-0.621-0.063-1.24,0.141-1.704,0.559S129.703,114.121,129.702,114.745L129.702,114.745z"/>
	<path fill="#472F92" d="M125.051,114.742c-0.224,0.233-0.221,0.603,0.007,0.831c0.229,0.229,0.599,0.232,0.831,0.008
		c0.325-0.325,0.852-0.325,1.177,0c0.232,0.224,0.603,0.221,0.831-0.008c0.229-0.229,0.231-0.598,0.007-0.831
		c-0.378-0.378-0.892-0.59-1.426-0.59S125.43,114.364,125.051,114.742L125.051,114.742z"/>
	<path fill="#472F92" d="M120.273,116.955c0.327,0,0.593-0.266,0.593-0.593c-0.004-0.184,0.065-0.362,0.194-0.494
		c0.129-0.132,0.305-0.207,0.489-0.207s0.36,0.074,0.489,0.207c0.129,0.131,0.199,0.31,0.194,0.494c0,0.327,0.265,0.593,0.593,0.593
		c0.327,0,0.592-0.266,0.592-0.593c0.008-0.5-0.186-0.982-0.537-1.339c-0.351-0.356-0.831-0.557-1.331-0.557
		c-0.501,0-0.98,0.2-1.332,0.557c-0.351,0.357-0.545,0.839-0.537,1.339C119.681,116.689,119.946,116.955,120.273,116.955
		L120.273,116.955z"/>
	<path fill="#472F92" d="M128.491,112.434c0.264-1.866-2.041-3.152-3.491-1.948c-0.565,0.407-1.347,1.857-0.287,2.103
		c0.324,0.037,0.618-0.195,0.658-0.52c0.026-0.261,0.156-0.5,0.36-0.664c0.205-0.165,0.466-0.24,0.726-0.209
		c0.261,0.029,0.498,0.164,0.659,0.37c0.161,0.207,0.232,0.47,0.198,0.729c-0.038,0.325,0.195,0.62,0.52,0.658
		S128.453,112.76,128.491,112.434L128.491,112.434z"/>
	<path fill="#472F92" d="M114.917,112.329c-0.64,0-1.254,0.255-1.708,0.708c-0.453,0.453-0.707,1.066-0.708,1.707
		c0,0.328,0.266,0.592,0.594,0.592c0.327,0,0.592-0.265,0.592-0.592c0-0.439,0.234-0.846,0.615-1.065c0.38-0.22,0.849-0.219,1.229,0
		c0.38,0.22,0.615,0.626,0.615,1.065c0,0.328,0.266,0.592,0.593,0.592c0.328,0,0.593-0.265,0.593-0.592
		c-0.001-0.641-0.255-1.254-0.708-1.707C116.171,112.584,115.557,112.33,114.917,112.329L114.917,112.329z"/>
	<path fill="#472F92" d="M121.319,113.049c0.024,0.323,0.304,0.566,0.627,0.546s0.571-0.296,0.556-0.619
		c-0.059-0.768-0.519-1.447-1.209-1.786c-0.691-0.34-1.51-0.29-2.154,0.132c-0.645,0.421-1.018,1.151-0.983,1.92
		c0.025,0.323,0.304,0.565,0.627,0.546c0.323-0.02,0.57-0.294,0.556-0.618c-0.017-0.263,0.072-0.521,0.247-0.718
		c0.268-0.294,0.686-0.402,1.063-0.271C121.025,112.311,121.289,112.652,121.319,113.049L121.319,113.049z"/>
</g>
</svg>
